<svg id="Layer_3" enable-background="new 0 0 64 64" height="512" viewBox="0 0 64 64" width="512" xmlns="http://www.w3.org/2000/svg"><g><path d="m16 58h28l18-18h-7l-8 8h-13c-1.105 0-2-.895-2-2 0-1.105.895-2 2-2h5l4-4h-14l-9 8h-4" fill="#fadfb2"/><path d="m10 12h52v22h-52z" fill="#78b75b"/><path d="m58 12v-4h-52v22h4v-18z" fill="#96cc7f"/><path d="m54 8v-6h-52v22h4v-16z" fill="#78b75b"/><path d="m12 46h4v14h-4z" fill="#d5cec2" transform="matrix(-1 0 0 -1 28 106)"/><path d="m2 44h10v18h-10z" fill="#758190"/><circle cx="36" cy="23" fill="#96cc7f" r="8"/><path d="m37 22h-.002v-2h.002c.551 0 .998.448.998 1h2c0-1.654-1.345-3-2.998-3h-.002v-1h-1.999v1c-1.654 0-3 1.346-3 3s1.346 2.999 3 2.999v2c-.552 0-1-.448-1-.999h-2c0 1.654 1.346 2.999 3 2.999v1h1.999v-1h.002c1.653 0 2.998-1.346 2.998-3s-1.345-2.999-2.998-2.999zm-3.001-1c0-.552.448-1 1-1v2c-.552 0-1-.449-1-1zm3.001 4.999h-.002v-2h.002c.551 0 .998.449.998 1.001 0 .551-.447.999-.998.999z" fill="#669e4f"/><g><path d="m57.998 30.999h-11.999v-2h10.999v-11.999h-10.999v-2h11.999c.553 0 1 .447 1 1v14c0 .552-.447.999-1 .999z" fill="#669e4f"/></g><g><path d="m25.999 31h-11.999c-.553 0-1-.448-1-1v-14c0-.553.447-1 1-1h11.999v2h-10.999v12h10.999z" fill="#669e4f"/></g><path d="m18 21h6v4h-6z" fill="#96cc7f"/><path d="m48 21h6v4h-6z" fill="#96cc7f"/><path d="m12 55.979c1.62-1.219 2.984-2.752 4-4.518v-5.461h-4z" fill="#e7e4dd"/><path d="m2 58.949c.332.022.662.05 1 .05 3.382 0 6.491-1.133 9-3.02v-11.979h-10z" fill="#8892a0"/><g><path d="m62 39h-7.002c-.265 0-.52.105-.707.292l-7.707 7.708h-12.585c-.552 0-.999-.449-.999-1 0-.552.447-1 .999-1h5c.265 0 .52-.105.707-.293l4-4c.285-.286.371-.716.217-1.09-.155-.374-.52-.617-.925-.617h-13.999c-.245 0-.481.09-.665.252l-8.716 7.748h-2.62v-1c0-.553-.447-1-1-1h-3v-1c0-.553-.447-1-1-1h-9.999c-.553 0-1 .447-1 1v18c0 .553.447 1 1 1h9.999c.553 0 1-.447 1-1v-1h3c.553 0 1-.447 1-1v-1h27c.266 0 .521-.105.708-.292l18.001-18c.285-.286.371-.716.217-1.09-.155-.375-.52-.618-.924-.618zm-51.002 21.999h-7.999v-15.999h7.999zm4-2h-1.999v-11.999h1.999zm28.586-2h-26.586v-8h3.001c.244 0 .48-.09.664-.253l8.716-7.746h11.205l-2 2h-4.585c-1.654 0-2.999 1.345-2.999 3 0 1.654 1.345 3 2.999 3h12.999c.266 0 .521-.105.708-.293l7.707-7.707h4.172z"/><path d="m35.999 31.999c4.962 0 8.999-4.037 8.999-9s-4.037-9-8.999-9c-4.963 0-9 4.037-9 9s4.037 9 9 9zm0-15.999c3.859 0 6.999 3.14 6.999 7 0 3.859-3.14 7-6.999 7-3.86 0-7-3.14-7-7s3.14-7 7-7z"/><path d="m33.999 25h-2c0 1.654 1.346 2.999 3 2.999v1h1.999v-1h.002c1.653 0 2.998-1.346 2.998-3s-1.345-3-2.998-3h-.002v-2h.002c.551 0 .998.448.998 1h2c0-1.654-1.345-3-2.998-3h-.002v-1h-1.999v1c-1.654 0-3 1.346-3 3s1.346 2.999 3 2.999v2c-.552.001-1-.447-1-.998zm0-4c0-.552.448-1 1-1v2c-.552 0-1-.449-1-1zm2.999 2.999h.002c.551 0 .998.449.998 1.001 0 .551-.447.999-.998.999h-.002z"/><path d="m62 11h-3.001v-3c0-.553-.447-1-1-1h-3v-5c0-.553-.447-1-1-1h-51.999c-.553 0-1 .447-1 1v22c0 .553.447 1 1 1h3v5c0 .553.447 1 1 1h2.999v3c0 .553.447 1 1 1h52.001c.552 0 1-.447 1-1v-22c0-.553-.448-1-1-1zm-57-3v15h-2v-20h49.999v4h-46.999c-.553 0-1 .447-1 1zm2 20.999v-19.999h49.999v2h-47c-.553 0-1 .447-1 1v17h-1.999zm54 4h-50.001v-19.999h50.001z"/><path d="m58.998 29.999v-13.999c0-.553-.447-1-1-1h-11.999v2h10.999v12h-10.999v2h11.999c.553-.001 1-.448 1-1.001z"/><path d="m14 31h11.999v-2h-10.999v-12h10.999v-2h-11.999c-.553 0-1 .447-1 1v14c0 .552.447 1 1 1z"/><path d="m17.999 20c-.553 0-1 .447-1 1v4c0 .553.447 1 1 1h5.999c.553 0 1-.447 1-1v-4c0-.553-.447-1-1-1zm4.999 3.999h-3.999v-2h3.999z"/><path d="m53.998 25.999c.553 0 1-.447 1-1v-4c0-.553-.447-1-1-1h-5.999c-.553 0-1 .447-1 1v4c0 .553.447 1 1 1zm-4.999-3.999h3.999v2h-3.999z"/></g></g></svg>